<svg id="visual" viewBox="0 0 900 900" width="900" height="900" xmlns="http://www.w3.org/2000/svg" xmlns:xlink="http://www.w3.org/1999/xlink" version="1.1"><g transform="translate(473.21077651156907 471.5246256884652)"><path d="M201.2 -332.1C245.6 -284.5 256.1 -203.1 275.9 -133.6C295.8 -64.2 325.1 -6.6 330.4 56.8C335.7 120.2 317.1 189.4 277.3 246.3C237.4 303.3 176.3 347.8 113.4 349.7C50.4 351.6 -14.4 310.7 -73.3 279.7C-132.2 248.7 -185.1 227.5 -230.1 190.9C-275.2 154.3 -312.3 102.3 -340.8 36.7C-369.4 -28.8 -389.4 -107.9 -370 -176.7C-350.6 -245.5 -291.8 -304 -223.6 -340.7C-155.3 -377.4 -77.7 -392.2 0.4 -392.8C78.4 -393.3 156.8 -379.6 201.2 -332.1" fill="#483285"></path></g></svg>