<svg xmlns="http://www.w3.org/2000/svg" viewBox="0 0 100 100" preserveAspectRatio="xMidYMid" width="201" height="201" style="shape-rendering: auto; display: block; background: transparent;" xmlns:xlink="http://www.w3.org/1999/xlink"><g><g transform="rotate(0 50 50)">
  <rect fill="#159957" height="6" width="6" ry="2.82" rx="2.82" y="29" x="47">
    <animate repeatCount="indefinite" begin="-0.9075907590759075s" dur="0.9900990099009901s" keyTimes="0;1" values="1;0" attributeName="opacity"></animate>
  </rect>
</g><g transform="rotate(30 50 50)">
  <rect fill="#159957" height="6" width="6" ry="2.82" rx="2.82" y="29" x="47">
    <animate repeatCount="indefinite" begin="-0.825082508250825s" dur="0.9900990099009901s" keyTimes="0;1" values="1;0" attributeName="opacity"></animate>
  </rect>
</g><g transform="rotate(60 50 50)">
  <rect fill="#159957" height="6" width="6" ry="2.82" rx="2.82" y="29" x="47">
    <animate repeatCount="indefinite" begin="-0.7425742574257426s" dur="0.9900990099009901s" keyTimes="0;1" values="1;0" attributeName="opacity"></animate>
  </rect>
</g><g transform="rotate(90 50 50)">
  <rect fill="#159957" height="6" width="6" ry="2.82" rx="2.82" y="29" x="47">
    <animate repeatCount="indefinite" begin="-0.6600660066006601s" dur="0.9900990099009901s" keyTimes="0;1" values="1;0" attributeName="opacity"></animate>
  </rect>
</g><g transform="rotate(120 50 50)">
  <rect fill="#159957" height="6" width="6" ry="2.82" rx="2.82" y="29" x="47">
    <animate repeatCount="indefinite" begin="-0.5775577557755776s" dur="0.9900990099009901s" keyTimes="0;1" values="1;0" attributeName="opacity"></animate>
  </rect>
</g><g transform="rotate(150 50 50)">
  <rect fill="#159957" height="6" width="6" ry="2.82" rx="2.82" y="29" x="47">
    <animate repeatCount="indefinite" begin="-0.495049504950495s" dur="0.9900990099009901s" keyTimes="0;1" values="1;0" attributeName="opacity"></animate>
  </rect>
</g><g transform="rotate(180 50 50)">
  <rect fill="#159957" height="6" width="6" ry="2.82" rx="2.82" y="29" x="47">
    <animate repeatCount="indefinite" begin="-0.4125412541254125s" dur="0.9900990099009901s" keyTimes="0;1" values="1;0" attributeName="opacity"></animate>
  </rect>
</g><g transform="rotate(210 50 50)">
  <rect fill="#159957" height="6" width="6" ry="2.82" rx="2.82" y="29" x="47">
    <animate repeatCount="indefinite" begin="-0.33003300330033003s" dur="0.9900990099009901s" keyTimes="0;1" values="1;0" attributeName="opacity"></animate>
  </rect>
</g><g transform="rotate(240 50 50)">
  <rect fill="#159957" height="6" width="6" ry="2.82" rx="2.82" y="29" x="47">
    <animate repeatCount="indefinite" begin="-0.2475247524752475s" dur="0.9900990099009901s" keyTimes="0;1" values="1;0" attributeName="opacity"></animate>
  </rect>
</g><g transform="rotate(270 50 50)">
  <rect fill="#159957" height="6" width="6" ry="2.82" rx="2.82" y="29" x="47">
    <animate repeatCount="indefinite" begin="-0.16501650165016502s" dur="0.9900990099009901s" keyTimes="0;1" values="1;0" attributeName="opacity"></animate>
  </rect>
</g><g transform="rotate(300 50 50)">
  <rect fill="#159957" height="6" width="6" ry="2.82" rx="2.82" y="29" x="47">
    <animate repeatCount="indefinite" begin="-0.08250825082508251s" dur="0.9900990099009901s" keyTimes="0;1" values="1;0" attributeName="opacity"></animate>
  </rect>
</g><g transform="rotate(330 50 50)">
  <rect fill="#159957" height="6" width="6" ry="2.82" rx="2.82" y="29" x="47">
    <animate repeatCount="indefinite" begin="0s" dur="0.9900990099009901s" keyTimes="0;1" values="1;0" attributeName="opacity"></animate>
  </rect>
</g><g></g></g><!-- [ldio] generated by https://loading.io --></svg>