<svg id="visual" viewBox="0 0 900 600" width="900" height="600" xmlns="http://www.w3.org/2000/svg" xmlns:xlink="http://www.w3.org/1999/xlink" version="1.1"><path d="M0 406L21.5 397.7C43 389.3 86 372.7 128.8 365.5C171.7 358.3 214.3 360.7 257.2 368.8C300 377 343 391 385.8 397.2C428.7 403.3 471.3 401.7 514.2 406C557 410.3 600 420.7 642.8 425C685.7 429.3 728.3 427.7 771.2 416.2C814 404.7 857 383.3 878.5 372.7L900 362L900 601L878.5 601C857 601 814 601 771.2 601C728.3 601 685.7 601 642.8 601C600 601 557 601 514.2 601C471.3 601 428.7 601 385.8 601C343 601 300 601 257.2 601C214.3 601 171.7 601 128.8 601C86 601 43 601 21.5 601L0 601Z" fill="#bb3ead"></path><path d="M0 443L21.5 445.8C43 448.7 86 454.3 128.8 446.5C171.7 438.7 214.3 417.3 257.2 410.7C300 404 343 412 385.8 413C428.7 414 471.3 408 514.2 416.3C557 424.7 600 447.3 642.8 458.5C685.7 469.7 728.3 469.3 771.2 462.5C814 455.7 857 442.3 878.5 435.7L900 429L900 601L878.5 601C857 601 814 601 771.2 601C728.3 601 685.7 601 642.8 601C600 601 557 601 514.2 601C471.3 601 428.7 601 385.8 601C343 601 300 601 257.2 601C214.3 601 171.7 601 128.8 601C86 601 43 601 21.5 601L0 601Z" fill="#9e3ca6"></path><path d="M0 479L21.5 483.7C43 488.3 86 497.7 128.8 500.7C171.7 503.7 214.3 500.3 257.2 493C300 485.7 343 474.3 385.8 468.5C428.7 462.7 471.3 462.3 514.2 461.8C557 461.3 600 460.7 642.8 458.7C685.7 456.7 728.3 453.3 771.2 453.8C814 454.3 857 458.7 878.5 460.8L900 463L900 601L878.5 601C857 601 814 601 771.2 601C728.3 601 685.7 601 642.8 601C600 601 557 601 514.2 601C471.3 601 428.7 601 385.8 601C343 601 300 601 257.2 601C214.3 601 171.7 601 128.8 601C86 601 43 601 21.5 601L0 601Z" fill="#813a9d"></path><path d="M0 495L21.5 497C43 499 86 503 128.8 500.7C171.7 498.3 214.3 489.7 257.2 493.2C300 496.7 343 512.3 385.8 520.7C428.7 529 471.3 530 514.2 525C557 520 600 509 642.8 506.3C685.7 503.7 728.3 509.3 771.2 507C814 504.7 857 494.3 878.5 489.2L900 484L900 601L878.5 601C857 601 814 601 771.2 601C728.3 601 685.7 601 642.8 601C600 601 557 601 514.2 601C471.3 601 428.7 601 385.8 601C343 601 300 601 257.2 601C214.3 601 171.7 601 128.8 601C86 601 43 601 21.5 601L0 601Z" fill="#643792"></path><path d="M0 531L21.5 535.2C43 539.3 86 547.7 128.8 547.7C171.7 547.7 214.3 539.3 257.2 540.3C300 541.3 343 551.7 385.8 554.8C428.7 558 471.3 554 514.2 554.5C557 555 600 560 642.8 555.8C685.7 551.7 728.3 538.3 771.2 532C814 525.7 857 526.3 878.5 526.7L900 527L900 601L878.5 601C857 601 814 601 771.2 601C728.3 601 685.7 601 642.8 601C600 601 557 601 514.2 601C471.3 601 428.7 601 385.8 601C343 601 300 601 257.2 601C214.3 601 171.7 601 128.8 601C86 601 43 601 21.5 601L0 601Z" fill="#483285"></path></svg>