<svg id="visual" viewBox="0 0 900 600" width="900" height="600" xmlns="http://www.w3.org/2000/svg" xmlns:xlink="http://www.w3.org/1999/xlink" version="1.1"><path d="M0 385L21.5 390.2C43 395.3 86 405.7 128.8 401C171.7 396.3 214.3 376.7 257.2 366.2C300 355.7 343 354.3 385.8 361.3C428.7 368.3 471.3 383.7 514.2 395.8C557 408 600 417 642.8 421C685.7 425 728.3 424 771.2 422.2C814 420.3 857 417.7 878.5 416.3L900 415L900 601L878.5 601C857 601 814 601 771.2 601C728.3 601 685.7 601 642.8 601C600 601 557 601 514.2 601C471.3 601 428.7 601 385.8 601C343 601 300 601 257.2 601C214.3 601 171.7 601 128.8 601C86 601 43 601 21.5 601L0 601Z" fill="#483285"></path><path d="M0 466L21.5 465.7C43 465.3 86 464.7 128.8 459.7C171.7 454.7 214.3 445.3 257.2 448C300 450.7 343 465.3 385.8 460.8C428.7 456.3 471.3 432.7 514.2 420.8C557 409 600 409 642.8 408.2C685.7 407.3 728.3 405.7 771.2 417C814 428.3 857 452.7 878.5 464.8L900 477L900 601L878.5 601C857 601 814 601 771.2 601C728.3 601 685.7 601 642.8 601C600 601 557 601 514.2 601C471.3 601 428.7 601 385.8 601C343 601 300 601 257.2 601C214.3 601 171.7 601 128.8 601C86 601 43 601 21.5 601L0 601Z" fill="#643792"></path><path d="M0 467L21.5 473.5C43 480 86 493 128.8 500.2C171.7 507.3 214.3 508.7 257.2 506.7C300 504.7 343 499.3 385.8 497.7C428.7 496 471.3 498 514.2 499C557 500 600 500 642.8 499.5C685.7 499 728.3 498 771.2 495C814 492 857 487 878.5 484.5L900 482L900 601L878.5 601C857 601 814 601 771.2 601C728.3 601 685.7 601 642.8 601C600 601 557 601 514.2 601C471.3 601 428.7 601 385.8 601C343 601 300 601 257.2 601C214.3 601 171.7 601 128.8 601C86 601 43 601 21.5 601L0 601Z" fill="#813a9d"></path><path d="M0 505L21.5 511.2C43 517.3 86 529.7 128.8 535.8C171.7 542 214.3 542 257.2 535.5C300 529 343 516 385.8 513C428.7 510 471.3 517 514.2 518.7C557 520.3 600 516.7 642.8 509.7C685.7 502.7 728.3 492.3 771.2 492.3C814 492.3 857 502.7 878.5 507.8L900 513L900 601L878.5 601C857 601 814 601 771.2 601C728.3 601 685.7 601 642.8 601C600 601 557 601 514.2 601C471.3 601 428.7 601 385.8 601C343 601 300 601 257.2 601C214.3 601 171.7 601 128.8 601C86 601 43 601 21.5 601L0 601Z" fill="#9e3ca6"></path><path d="M0 548L21.5 545C43 542 86 536 128.8 537.5C171.7 539 214.3 548 257.2 548.7C300 549.3 343 541.7 385.8 539.8C428.7 538 471.3 542 514.2 545.2C557 548.3 600 550.7 642.8 551.5C685.7 552.3 728.3 551.7 771.2 547.7C814 543.7 857 536.3 878.5 532.7L900 529L900 601L878.5 601C857 601 814 601 771.2 601C728.3 601 685.7 601 642.8 601C600 601 557 601 514.2 601C471.3 601 428.7 601 385.8 601C343 601 300 601 257.2 601C214.3 601 171.7 601 128.8 601C86 601 43 601 21.5 601L0 601Z" fill="#bb3ead"></path></svg>