<svg xmlns="http://www.w3.org/2000/svg" version="1.1" xmlnsXlink="http://www.w3.org/1999/xlink" xmlnsSvgjs="http://svgjs.dev/svgjs" width="2000" height="757" viewBox="0 0 2000 757"><g transform="matrix(1,0,0,1,-1.2121212121212466,-1.7598702941933766)"><svg viewBox="0 0 396 150" data-background-color="#ffffff" preserveAspectRatio="xMidYMid meet" height="757" width="2000" xmlns="http://www.w3.org/2000/svg" xmlnsXlink="http://www.w3.org/1999/xlink"><g id="tight-bounds" transform="matrix(1,0,0,1,0.2400000000000091,0.3487193449524568)"><svg viewBox="0 0 395.52 149.30256131009503" height="149.30256131009503" width="395.52"><g><svg viewBox="0 0 395.52 149.30256131009503" height="149.30256131009503" width="395.52"><g><svg viewBox="0 0 395.52 149.30256131009503" height="149.30256131009503" width="395.52"><g id="textblocktransform"><svg viewBox="0 0 395.52 149.30256131009503" height="149.30256131009503" width="395.52" id="textblock"><g><svg viewBox="0 0 395.52 76.71979989994998" height="76.71979989994998" width="395.52"><g transform="matrix(1,0,0,1,0,0)"><svg width="395.52" viewBox="2.69 -36.99 195.2 37.870000000000005" height="76.71979989994998" data-palette-color="#ffffff"><path d="M2.73-21.12L2.81-33.2 2.73-35.3Q2.73-36.65 3-36.96L3-36.96Q3.66-36.99 5.51-36.99 7.35-36.99 8.69-36.96L8.69-36.96 12.13-36.91Q13.09-36.99 14.89-36.99 16.7-36.99 17.19-36.5L17.19-36.5Q17.07-30.54 17.07-22.34L17.07-22.34 17.92-22.19Q18.29-23.14 19.25-25.05 20.21-26.95 20.36-27.27L20.36-27.27 20.63-27.86Q20.73-28.08 21.52-29.75 22.31-31.42 23.14-33.51 23.97-35.6 24.93-36.79L24.93-36.79Q26.64-36.82 29.09-36.82 31.54-36.82 34.81-36.73 38.09-36.65 39.72-36.65L39.72-36.65Q32.76-24.07 29.83-19.24L29.83-19.24 30.4-18.33Q31.4-17.09 34.77-11.23 38.13-5.37 39.65-2.91L39.65-2.91 40.23-1.95Q41.31-0.17 41.31 0.07 41.31 0.32 41.16 0.51L41.16 0.51 41.02 0.51Q39.65 0.46 38.81 0.46 37.96 0.46 36.6 0.51L36.6 0.51 25.63 0.51Q21.88-6.52 17.82-14.75L17.82-14.75Q17.63-12.79 17.24-5.52L17.24-5.52 17.24-5.2 17.29 0.34Q16.99 0.78 14.72 0.78L14.72 0.78 14.21 0.76 12.89 0.76 5.98 0.81 3.74 0.81Q3.05 0.81 2.76 0.29L2.76 0.29 2.69 0.22 2.69-3.49 2.73-7.32 2.73-21.12ZM57.05-29.2L57.05-26.86 57-11.35Q57-8.86 58.79-8.86L58.79-8.86Q60.28-8.86 60.28-11.5L60.28-11.5 60.28-29.17 68.31-29.2 76.27-29.2 76.29-0.02 62.62-0.02 61.47-3.98Q58.35 0.88 52.9 0.88L52.9 0.88Q48.22 0.88 45.02-1.81L45.02-1.81 45.04-1.98Q44.63-2.1 44.02-2.87 43.41-3.64 43.09-4.2L43.09-4.2Q41.5-7.08 41.5-12.67L41.5-12.67 41.53-13.45 41.53-29.17 49.29-29.17 57.05-29.2ZM110.66-24.32L110.66-24.32Q115.2-30.25 119.72-30.25 124.24-30.25 127.68-26.9L127.68-26.9Q129.37-25.24 129.95-23.22L129.95-23.22 130.12-22.56Q130.78-20.26 130.78-19.71 130.78-19.17 130.68-18.82L130.68-18.82Q130.85-18.68 130.85-18.38L130.85-18.38 130.81-17.43Q130.85-15.67 130.85-14.97L130.85-14.97 130.85 0.02 116.06 0.02 116.04-14.33 116.06-14.87Q116.06-18.41 114.08-18.41L114.08-18.41Q111.86-18.41 111.86-14.5L111.86-14.5 111.91-12.82 111.91 0 105.12 0.02 98.36 0.02 98.33-13.09 98.38-14.67Q98.38-17.85 96.43-18.43L96.43-18.43Q94.14-18.31 94.14-14.89L94.14-14.89 94.18-13.43 94.18 0 86.32 0.02 78.51 0.02 78.49-14.65 78.49-29.22 85.18-29.25 91.89-29.25 92.06-28.66Q92.96-25.46 93.43-23.68L93.43-23.68Q95.01-26.42 97.13-28.33 99.24-30.25 101.34-30.25L101.34-30.25Q102-30.25 102.66-30.25L102.66-30.25Q104.78-30.25 107-28.5 109.22-26.76 110.66-24.32ZM144.67-16.04L145.79-16.21 146.04-16.19 146.62-16.19Q147.45-16.19 147.92-16.31L147.92-16.31 149.24-16.48Q152.6-16.72 153.29-18.29L153.29-18.29Q153.63-19.07 153.63-20.26L153.63-20.26Q153.48-20.51 153.48-21.19 153.48-21.88 152.79-22.63 152.09-23.39 151.14-23.39L151.14-23.39 151.02-23.39Q148.67-23.39 148.67-19.41L148.67-19.41Q148.55-19.21 148.27-19.26 147.99-19.31 146.92-19.31L146.92-19.31 134.32-19.31Q134.44-21 135.2-22.95L135.2-22.95Q136.64-26.71 140.78-28.36 144.91-30 148.99-30.15L148.99-30.15 150.46-30.22 151.24-30.3Q151.38-30.3 151.53-30.22L151.53-30.22 151.85-30.22 152.95-30.27Q153.29-30.27 154.48-30.1L154.48-30.1 155.19-30Q155.36-29.98 155.73-29.98 156.1-29.98 157.27-29.82 158.44-29.66 160.2-28.98L160.2-28.98Q166.15-26.64 167.42-20L167.42-20Q167.96-17.19 167.96-13.77L167.96-13.77Q168.13-13.21 168.13-12.74L168.13-12.74 168.01-11.06 168.01-8.23Q168.03-8.18 168.03-7.81L168.03-7.81 167.99-6.15 167.99-5.93Q168.06-5.81 168.06-5.59L168.06-5.59 168.03-5.37 168.03-4.86Q168.03-2.54 168.74-0.46L168.74-0.46 168.99 0.07 157.95 0.07 157.07 0.05Q156.1 0.05 155.58 0.07L155.58 0.07Q154.8-1.39 154.09-3.93L154.09-3.93Q153.78-3.27 153.01-2.43 152.24-1.59 151.87-1.59L151.87-1.59Q148.26 0.17 146.38 0.42L146.38 0.42Q143.6 0.88 143.39 0.88 143.18 0.88 143.18 0.88L143.18 0.88Q137.35 0.88 134.37-3.17L134.37-3.17Q132.88-5.25 132.88-7.98L132.88-7.98Q132.88-13.92 138.4-15.26L138.4-15.26Q139.81-15.6 143.86-15.97L143.86-15.97 144.67-16.04ZM153.8-9.81L153.8-10.55 153.83-11.33Q153.83-12.55 153.63-13.67L153.63-13.67Q153.09-13.38 152.07-13.01 151.04-12.65 150.43-12.39 149.82-12.13 149.32-11.49 148.82-10.84 148.82-9.72 148.82-8.59 149.54-7.67 150.26-6.74 151.12-6.74L151.12-6.74Q152.95-6.74 153.73-8.06L153.73-8.06 153.78-8.3 153.8-9.81ZM171.55-14.55L171.55-29.22 178.04-29.25 184.54-29.25 185.07-25.98Q185.63-22.53 185.73-22.07L185.73-22.07 186.59-22.07Q187.49-26.25 190.05-28L190.05-28 191.03-28.56Q191.1-28.71 191.91-29.1L191.91-29.1 191.81-29.08 192.37-29.3Q194.77-30.25 196.5-30.27L196.5-30.27Q196.87-30.27 196.99-30.22L196.99-30.22 197.89-30.22 197.89-16.6Q197.38-16.72 196.28-16.72 195.18-16.72 194.02-16.41 192.86-16.09 192.07-15.59 191.27-15.09 190.69-14.31L190.69-14.31Q188.88-11.89 188.88-7.06L188.88-7.06 188.93-4.49 188.93 0 180.24 0.02 171.57 0.02 171.55-14.55Z" opacity="1" transform="matrix(1,0,0,1,0,0)" fill="#ffffff" class="wordmark-text-0" data-fill-palette-color="primary" id="text-0"></path></svg></g></svg></g><g transform="matrix(1,0,0,1,0,94.83150338113057)"><svg viewBox="0 0 194.60374071173516 54.47105792896448" height="54.47105792896448" width="194.60374071173516"><g transform="matrix(1,0,0,1,0,0)"><svg width="194.60374071173516" viewBox="2 -38.26 179.58 50.269999999999996" height="54.47105792896448" data-palette-color="#ffffff"><path d="M6.25-4L6.25-31.01 2-32.01 2-34.74 11.5-35.01 16.99-35.01Q22.29-35.01 25.27-32.6 28.25-30.2 28.25-26L28.25-26Q28.25-18.65 21.75-16.26L21.75-16.26Q22.95-15.21 24.76-11.74L24.76-11.74 28.71-3.81 32.25-3 32.25 0 24.76 0 20.51-9.25Q19.31-11.84 18.41-13.07 17.5-14.31 16.48-14.78 15.45-15.26 13.75-15.26L13.75-15.26 11.5-15.26 11.5-4 15.75-3 15.75 0 2 0 2-3 6.25-4ZM15.26-18.99Q18.9-18.99 20.95-20.64 23-22.29 23-25.24L23-25.24Q23-27.73 21.25-29.37 19.51-31.01 16.75-31.01L16.75-31.01 11.5-31.01 11.5-18.99 15.26-18.99ZM36.25-25Q36.64-25.15 38.22-25.62 39.79-26.1 41.94-26.55 44.09-27 45.99-27L45.99-27Q50.53-27 52.89-25.2 55.25-23.39 55.25-19.24L55.25-19.24 55.25-4 59.25-3 59.25-0.24 51.49 0 50.44-3.49Q48.83-1.88 46.71-0.7 44.6 0.49 42.23 0.49L42.23 0.49Q38.69 0.49 36.72-1.48 34.74-3.44 34.74-7.01L34.74-7.01Q34.74-11.16 37.72-12.95 40.7-14.75 46.24-14.75L46.24-14.75 50.24-14.75 50.24-18.75Q50.24-20.95 49.02-22.09 47.8-23.24 45.48-23.24L45.48-23.24Q44.14-23.24 43.02-23.07 41.89-22.9 41.25-22.73 40.6-22.56 40.45-22.51L40.45-22.51 39.74-18.75 36.5-18.75 36.25-25ZM46.75-11.5Q43.04-11.5 41.44-10.5 39.84-9.5 39.84-7.25L39.84-7.25Q39.84-5.54 40.82-4.52 41.79-3.49 43.5-3.49L43.5-3.49Q45.16-3.49 46.65-4.39 48.14-5.3 49.19-6.35 50.24-7.4 50.24-7.5L50.24-7.5 50.24-11.5 46.75-11.5ZM71.43-22.95Q72.99-24.29 75.52-25.65 78.05-27 80.73-27L80.73-27Q84.74-27 86.74-24.62 88.74-22.24 88.74-17.99L88.74-17.99 88.74-4 92.48-2.76 92.48 0 80.49 0 80.49-2.76 83.74-4 83.74-17.5Q83.74-20.21 82.69-21.48 81.64-22.75 79.24-22.75L79.24-22.75Q77.34-22.75 75.74-21.85 74.14-20.95 73.07-19.9 71.99-18.85 71.99-18.75L71.99-18.75 71.99-4 75.24-2.76 75.24 0 62.74 0 62.74-2.76 66.99-4 66.99-22.51 62.74-23.51 62.74-26.25 70.99-26.49 71.43-22.95ZM98.16-34.74Q98.16-36.4 99.11-37.33 100.07-38.26 101.41-38.26L101.41-38.26Q104.66-38.26 104.66-34.74L104.66-34.74Q104.66-33.13 103.65-32.19 102.65-31.25 101.41-31.25L101.41-31.25Q99.92-31.25 99.04-32.18 98.16-33.11 98.16-34.74L98.16-34.74ZM104.41 2.25Q104.41 6.81 102.01 9.41 99.6 12.01 95.16 12.01L95.16 12.01Q94.35 12.01 93.3 11.9 92.25 11.79 91.96 11.74L91.96 11.74 92.42 8.25 94.91 8.25Q97.4 8.25 98.41 6.97 99.41 5.69 99.41 3.25L99.41 3.25 99.41-22.51 95.16-23.51 95.16-26.25 104.41-26.49 104.41 2.25ZM115.64-12.5Q115.64-8.4 117.64-5.94 119.64-3.49 122.89-3.49L122.89-3.49Q125.09-3.49 126.97-4.1 128.85-4.71 130.07-5.43 131.29-6.15 131.29-6.25L131.29-6.25 133.05-3.66Q133.05-3.56 131.42-2.45 129.8-1.34 127.42-0.43 125.04 0.49 122.38 0.49L122.38 0.49Q116.47 0.49 113.43-3.08 110.39-6.64 110.39-12.99L110.39-12.99Q110.39-16.94 111.94-20.14 113.49-23.34 116.29-25.17 119.08-27 122.65-27L122.65-27Q133.14-27 133.14-15.26L133.14-15.26Q133.14-14.45 133.05-13.65 132.95-12.84 132.9-12.6L132.9-12.6 115.64-12.5ZM127.85-16.26Q127.85-19.31 126.54-21.2 125.23-23.1 122.38-23.1L122.38-23.1Q119.47-23.1 117.78-21.14 116.08-19.19 115.83-16.26L115.83-16.26 127.85-16.26ZM143.1-12.5Q143.1-8.4 145.1-5.94 147.11-3.49 150.35-3.49L150.35-3.49Q152.55-3.49 154.43-4.1 156.31-4.71 157.53-5.43 158.75-6.15 158.75-6.25L158.75-6.25 160.51-3.66Q160.51-3.56 158.89-2.45 157.26-1.34 154.88-0.43 152.5 0.49 149.84 0.49L149.84 0.49Q143.93 0.49 140.89-3.08 137.85-6.64 137.85-12.99L137.85-12.99Q137.85-16.94 139.4-20.14 140.95-23.34 143.75-25.17 146.55-27 150.11-27L150.11-27Q160.61-27 160.61-15.26L160.61-15.26Q160.61-14.45 160.51-13.65 160.41-12.84 160.36-12.6L160.36-12.6 143.1-12.5ZM155.31-16.26Q155.31-19.31 154-21.2 152.7-23.1 149.84-23.1L149.84-23.1Q146.94-23.1 145.24-21.14 143.54-19.19 143.3-16.26L143.3-16.26 155.31-16.26ZM181.09-26.25L181.09-22.51 173.84-22.51 173.84-6.45Q173.84-3.39 176.33-3.39L176.33-3.39Q177.94-3.39 180.23-4.64L180.23-4.64 181.58-2Q178.18 0.49 174.57 0.49L174.57 0.49Q172.03 0.49 170.43-1.18 168.83-2.86 168.83-6.74L168.83-6.74 168.83-22.51 163.83-22.51 163.83-25.76 168.83-26.25 168.83-32.54 173.84-33.54 173.84-26.25 181.09-26.25Z" opacity="1" transform="matrix(1,0,0,1,0,0)" fill="#ffffff" class="slogan-text-1" data-fill-palette-color="secondary" id="text-1"></path></svg></g></svg></g></svg></g></svg></g></svg></g><defs></defs></svg><rect width="395.52" height="149.30256131009503" fill="none" stroke="none" visibility="hidden"></rect></g></svg></g></svg>