<svg xmlns="http://www.w3.org/2000/svg" viewBox="0 0 100 100" preserveAspectRatio="xMidYMid" width="240" height="240" style="shape-rendering: auto; display: block; background: transparent;" xmlns:xlink="http://www.w3.org/1999/xlink"><g><g transform="rotate(0 50 50)">
  <rect fill="#386cf0" height="15" width="5" ry="3" rx="2.5" y="12.5" x="47.5">
    <animate repeatCount="indefinite" begin="-1.6333938294010888s" dur="1.7241379310344827s" keyTimes="0;1" values="1;0" attributeName="opacity"></animate>
  </rect>
</g><g transform="rotate(18.94736842105263 50 50)">
  <rect fill="#386cf0" height="15" width="5" ry="3" rx="2.5" y="12.5" x="47.5">
    <animate repeatCount="indefinite" begin="-1.542649727767695s" dur="1.7241379310344827s" keyTimes="0;1" values="1;0" attributeName="opacity"></animate>
  </rect>
</g><g transform="rotate(37.89473684210526 50 50)">
  <rect fill="#386cf0" height="15" width="5" ry="3" rx="2.5" y="12.5" x="47.5">
    <animate repeatCount="indefinite" begin="-1.451905626134301s" dur="1.7241379310344827s" keyTimes="0;1" values="1;0" attributeName="opacity"></animate>
  </rect>
</g><g transform="rotate(56.8421052631579 50 50)">
  <rect fill="#386cf0" height="15" width="5" ry="3" rx="2.5" y="12.5" x="47.5">
    <animate repeatCount="indefinite" begin="-1.3611615245009072s" dur="1.7241379310344827s" keyTimes="0;1" values="1;0" attributeName="opacity"></animate>
  </rect>
</g><g transform="rotate(75.78947368421052 50 50)">
  <rect fill="#386cf0" height="15" width="5" ry="3" rx="2.5" y="12.5" x="47.5">
    <animate repeatCount="indefinite" begin="-1.2704174228675134s" dur="1.7241379310344827s" keyTimes="0;1" values="1;0" attributeName="opacity"></animate>
  </rect>
</g><g transform="rotate(94.73684210526316 50 50)">
  <rect fill="#386cf0" height="15" width="5" ry="3" rx="2.5" y="12.5" x="47.5">
    <animate repeatCount="indefinite" begin="-1.1796733212341197s" dur="1.7241379310344827s" keyTimes="0;1" values="1;0" attributeName="opacity"></animate>
  </rect>
</g><g transform="rotate(113.6842105263158 50 50)">
  <rect fill="#386cf0" height="15" width="5" ry="3" rx="2.5" y="12.5" x="47.5">
    <animate repeatCount="indefinite" begin="-1.0889292196007259s" dur="1.7241379310344827s" keyTimes="0;1" values="1;0" attributeName="opacity"></animate>
  </rect>
</g><g transform="rotate(132.6315789473684 50 50)">
  <rect fill="#386cf0" height="15" width="5" ry="3" rx="2.5" y="12.5" x="47.5">
    <animate repeatCount="indefinite" begin="-0.998185117967332s" dur="1.7241379310344827s" keyTimes="0;1" values="1;0" attributeName="opacity"></animate>
  </rect>
</g><g transform="rotate(151.57894736842104 50 50)">
  <rect fill="#386cf0" height="15" width="5" ry="3" rx="2.5" y="12.5" x="47.5">
    <animate repeatCount="indefinite" begin="-0.9074410163339381s" dur="1.7241379310344827s" keyTimes="0;1" values="1;0" attributeName="opacity"></animate>
  </rect>
</g><g transform="rotate(170.52631578947367 50 50)">
  <rect fill="#386cf0" height="15" width="5" ry="3" rx="2.5" y="12.5" x="47.5">
    <animate repeatCount="indefinite" begin="-0.8166969147005444s" dur="1.7241379310344827s" keyTimes="0;1" values="1;0" attributeName="opacity"></animate>
  </rect>
</g><g transform="rotate(189.47368421052633 50 50)">
  <rect fill="#386cf0" height="15" width="5" ry="3" rx="2.5" y="12.5" x="47.5">
    <animate repeatCount="indefinite" begin="-0.7259528130671505s" dur="1.7241379310344827s" keyTimes="0;1" values="1;0" attributeName="opacity"></animate>
  </rect>
</g><g transform="rotate(208.42105263157896 50 50)">
  <rect fill="#386cf0" height="15" width="5" ry="3" rx="2.5" y="12.5" x="47.5">
    <animate repeatCount="indefinite" begin="-0.6352087114337567s" dur="1.7241379310344827s" keyTimes="0;1" values="1;0" attributeName="opacity"></animate>
  </rect>
</g><g transform="rotate(227.3684210526316 50 50)">
  <rect fill="#386cf0" height="15" width="5" ry="3" rx="2.5" y="12.5" x="47.5">
    <animate repeatCount="indefinite" begin="-0.5444646098003629s" dur="1.7241379310344827s" keyTimes="0;1" values="1;0" attributeName="opacity"></animate>
  </rect>
</g><g transform="rotate(246.31578947368422 50 50)">
  <rect fill="#386cf0" height="15" width="5" ry="3" rx="2.5" y="12.5" x="47.5">
    <animate repeatCount="indefinite" begin="-0.45372050816696907s" dur="1.7241379310344827s" keyTimes="0;1" values="1;0" attributeName="opacity"></animate>
  </rect>
</g><g transform="rotate(265.2631578947368 50 50)">
  <rect fill="#386cf0" height="15" width="5" ry="3" rx="2.5" y="12.5" x="47.5">
    <animate repeatCount="indefinite" begin="-0.36297640653357527s" dur="1.7241379310344827s" keyTimes="0;1" values="1;0" attributeName="opacity"></animate>
  </rect>
</g><g transform="rotate(284.2105263157895 50 50)">
  <rect fill="#386cf0" height="15" width="5" ry="3" rx="2.5" y="12.5" x="47.5">
    <animate repeatCount="indefinite" begin="-0.27223230490018147s" dur="1.7241379310344827s" keyTimes="0;1" values="1;0" attributeName="opacity"></animate>
  </rect>
</g><g transform="rotate(303.1578947368421 50 50)">
  <rect fill="#386cf0" height="15" width="5" ry="3" rx="2.5" y="12.5" x="47.5">
    <animate repeatCount="indefinite" begin="-0.18148820326678763s" dur="1.7241379310344827s" keyTimes="0;1" values="1;0" attributeName="opacity"></animate>
  </rect>
</g><g transform="rotate(322.10526315789474 50 50)">
  <rect fill="#386cf0" height="15" width="5" ry="3" rx="2.5" y="12.5" x="47.5">
    <animate repeatCount="indefinite" begin="-0.09074410163339382s" dur="1.7241379310344827s" keyTimes="0;1" values="1;0" attributeName="opacity"></animate>
  </rect>
</g><g transform="rotate(341.05263157894734 50 50)">
  <rect fill="#386cf0" height="15" width="5" ry="3" rx="2.5" y="12.5" x="47.5">
    <animate repeatCount="indefinite" begin="0s" dur="1.7241379310344827s" keyTimes="0;1" values="1;0" attributeName="opacity"></animate>
  </rect>
</g><g></g></g><!-- [ldio] generated by https://loading.io --></svg>